<?xml version="1.0" encoding="UTF-8"?>
<svg xmlns="http://www.w3.org/2000/svg" xmlns:xlink="http://www.w3.org/1999/xlink" width="750pt" height="217.2pt" viewBox="0 0 750 217.2" version="1.1">
<defs>
<clipPath id="clip1">
  <path d="M 451 0 L 651 0 L 651 217.199219 L 451 217.199219 Z M 451 0 "/>
</clipPath>
</defs>
<g id="surface1">
<path style=" stroke:none;fill-rule:evenodd;fill:rgb(100%,100%,100%);fill-opacity:1;" d="M 0.046875 205.535156 L 206.402344 205.535156 L 206.402344 -0.0703125 L 0.046875 -0.0703125 Z M 0.046875 205.535156 "/>
<path style=" stroke:none;fill-rule:evenodd;fill:rgb(91.40625%,30.200195%,6.665039%);fill-opacity:1;" d="M 82.71875 138.6875 L 104.597656 121.003906 C 100.96875 116.429688 97.507813 111.714844 94.207031 106.949219 C 68.804688 70.296875 53.839844 32.933594 64.683594 -0.0703125 L 0.046875 -0.0703125 L 0.046875 35.570313 Z M 82.71875 138.6875 "/>
<path style=" stroke:none;fill-rule:evenodd;fill:rgb(91.40625%,30.200195%,6.665039%);fill-opacity:1;" d="M 117.304688 85.386719 C 118.664063 73.765625 122.164063 51.796875 143.53125 35.515625 C 162.035156 21.414063 185.140625 18.714844 205.644531 27.410156 L 205.644531 -0.0703125 L 91.554688 -0.0703125 C 84.019531 33.40625 103.828125 70.164063 117.304688 85.386719 Z M 117.304688 85.386719 "/>
<path style=" stroke:none;fill-rule:evenodd;fill:rgb(91.40625%,30.200195%,6.665039%);fill-opacity:1;" d="M 144.949219 51.871094 L 144.871094 51.933594 C 123.410156 69.359375 128.695313 96.71875 148.640625 121.277344 C 164.0625 140.265625 184.660156 153.558594 205.644531 143.480469 L 205.644531 62.589844 C 186.796875 43.296875 164.171875 36.253906 144.949219 51.871094 Z M 144.949219 51.871094 "/>
<path style=" stroke:none;fill-rule:evenodd;fill:rgb(91.40625%,30.200195%,6.665039%);fill-opacity:1;" d="M 0.046875 77.753906 L 0.046875 205.53125 L 0.0625 205.53125 L 62.273438 155.222656 Z M 0.046875 77.753906 "/>
<path style=" stroke:none;fill-rule:evenodd;fill:rgb(91.40625%,30.200195%,6.665039%);fill-opacity:1;" d="M 113.164063 131.167969 C 107.097656 136.195313 99.527344 142.378906 91.121094 149.171875 L 99.191406 159.234375 C 110.910156 173.855469 127.976563 199.128906 149.171875 192.292969 L 149.953125 193.253906 L 134.90625 205.53125 L 205.644531 205.53125 L 205.644531 156.878906 C 169.246094 176.675781 137.980469 158.660156 113.164063 131.167969 Z M 113.164063 131.167969 "/>
<path style=" stroke:none;fill-rule:evenodd;fill:rgb(91.40625%,30.200195%,6.665039%);fill-opacity:1;" d="M 79.027344 176.089844 L 70.664063 165.675781 C 53.535156 179.441406 35.445313 193.890625 20.824219 205.53125 L 99.992188 205.53125 C 94.84375 194.601563 85.496094 184.148438 79.027344 176.089844 Z M 79.027344 176.089844 "/>
<path style=" stroke:none;fill-rule:evenodd;fill:rgb(0%,38.818359%,51.367188%);fill-opacity:1;" d="M 376.945313 85.839844 C 395.871094 82.523438 408.175781 66.140625 408.175781 45.21875 C 408.175781 17.4375 384.121094 -0.0703125 342.890625 -0.0703125 L 261.328125 -0.0703125 L 261.328125 0.863281 C 277.984375 10.011719 277.609375 24.753906 277.609375 38.804688 L 277.609375 166.300781 C 277.609375 180.65625 277.984375 195.554688 261.328125 204.535156 L 261.328125 205.46875 L 300.601563 205.46875 C 338.984375 205.46875 368.367188 206.121094 390.367188 195.792969 C 413.695313 184.832031 427.867188 165.175781 427.867188 141.128906 C 427.867188 110.511719 405.050781 91.773438 376.945313 85.839844 Z M 309.601563 18.871094 L 335.394531 19.3125 C 354.535156 19.3125 374.121094 28.671875 374.121094 50.234375 C 374.121094 75.84375 356.816406 82.714844 332.121094 82.714844 L 309.601563 82.761719 Z M 334.476563 184.320313 L 309.601563 184.359375 L 309.601563 102.171875 L 336.328125 102.070313 C 367.476563 102.070313 393.179688 113.644531 393.179688 143.9375 C 393.179688 173.628906 366.199219 184.320313 334.476563 184.320313 Z M 334.476563 184.320313 "/>
<g clip-path="url(#clip1)" clip-rule="nonzero">
<path style=" stroke:none;fill-rule:evenodd;fill:rgb(0%,38.818359%,51.367188%);fill-opacity:1;" d="M 490.371094 166.339844 C 490.371094 183.84375 490.054688 196.34375 506.609375 206.019531 L 506.609375 206.957031 L 451.320313 206.957031 L 451.320313 206.019531 C 467.890625 196.34375 467.601563 183.84375 467.601563 166.339844 L 467.601563 41.441406 C 467.601563 23.949219 467.890625 10.234375 451.347656 0.863281 L 451.347656 -0.0703125 L 497.246094 -0.0703125 L 497.246094 0.246094 C 498.492188 3.996094 500.488281 6.050781 501.9375 8.050781 C 503.371094 10.046875 506.300781 14.296875 506.300781 14.296875 L 611.558594 156.195313 L 611.558594 40.230469 C 611.558594 22.738281 611.878906 10.234375 595.308594 0.863281 L 595.308594 -0.0703125 L 650.296875 -0.0703125 L 650.296875 0.863281 C 634.050781 10.234375 634.050781 22.738281 634.050781 40.230469 L 634.050781 217.144531 C 624.046875 213.164063 596.023438 189.878906 576.09375 163.070313 C 540.359375 114.988281 490.371094 48.214844 490.371094 48.214844 Z M 490.371094 166.339844 "/>
</g>
<path style=" stroke:none;fill-rule:evenodd;fill:rgb(0%,38.818359%,51.367188%);fill-opacity:1;" d="M 701.539063 37.171875 C 701.539063 22.808594 701.328125 10.023438 685.359375 0.863281 L 685.359375 -0.0703125 L 750.039063 -0.0703125 L 750.039063 0.863281 C 734.03125 9.753906 733.886719 23.117188 733.886719 37.171875 L 733.886719 168.585938 C 733.886719 182.617188 733.519531 196.789063 750.039063 205.984375 L 750.039063 206.914063 L 685.359375 206.914063 L 685.359375 205.984375 C 701.980469 196.695313 701.539063 182.726563 701.539063 168.679688 Z M 701.539063 37.171875 "/>
</g>
</svg>
