<svg xmlns="http://www.w3.org/2000/svg" width="645" height="240" viewBox="0 0 645 240.11"  shape-rendering="geometricPrecision" image-rendering="optimizeQuality" fill-rule="evenodd" xmlns:v="https://vecta.io/nano"><path d="M221.82 0c7.52 5.15 15.17 12.96 15.17 20.5v132.97c0 7.45-7.03 17.99-13.42 22.19h67.69c43.8-1.81 70.36-17.62 73.54-50.78 2.22-23.25-10.06-41.33-40.25-51.53 15.06-5.73 23.16-18.21 23.9-35.42C349.72 8.33 315.27 0 293.6 0h-71.78zm42.01 71.2V15.76h20.78c23.56 0 34.67 11.56 34.66 28.99 0 17.43-15.94 26.45-35.83 26.45h-19.61zm22.15 87.53h-22.15V86.95h25.1c37.38 0 48.69 22.48 46.68 40.85-2 18.38-17.79 30.93-49.63 30.93zM424.4 0h-36.78c8.18 9.1 11.74 13.88 11.74 27.99v121.18c0 13.95-6.18 22.52-15.06 28.58h48.95c-7.27-4.44-15.09-13.15-15.09-28.91V41.8l74.17 99.08c14.02 18.34 30.27 33.89 49.22 46.07V27.35c0-15.98 6.45-22.08 15.07-27.35H508.9c8.65 6.42 13.24 13.66 13.24 26.72v106.87L424.4 0zm159.31 177.75c9.9-6.57 14.93-14.28 14.93-24.28V26.54c0-15-4.33-18.4-12.83-26.54h56.49c-9.75 5.49-16.59 16.7-16.59 26.54v126.58c0 9.71 5.75 18.61 13.55 24.63h-55.55z" fill="#007697"/><path d="M0 0h54.53c-2.85 4.89-5 15.88.51 40.56 4.9 21.94 19.07 44.82 33.86 62.91l-18.58 15.25L0 30.37V0zm79.63 0h96v23.26c-7.43-4.34-20.97-8.53-40.85-.58C102.7 35.52 99.95 73.1 99.95 73.1 82.2 51.66 70.53 16.51 79.63 0zm96 54.12v69.24c-21.81 8.28-52.41-13.25-60.1-38.81-11.14-37.04 15.12-50.41 33.91-46.74 14.05 2.74 22.2 11.11 26.19 16.31zm0 80.6v40.92h-58.84l11.8-9.69c-7.7.94-22.82-2.68-30.18-11.93L77.7 128l18.93-15.55c11.64 12.83 22.72 22.04 28.98 24.81 13.42 5.92 28.53 8.77 50.02-2.54zm-91.69 40.92H19.67l40.04-32.88 9.45 11.87c5.9 7.42 10.85 14.73 14.78 21.01zm-82.95 0H0V67.73l52.33 65.76L.99 175.64z" fill="#ec6722"/><path d="M607.72 226.32h0l3.3-.49c.19 1.27.68 2.24 1.55 3.01.87.68 2.04 1.07 3.59 1.07 1.46 0 2.63-.39 3.4-.97.68-.58 1.07-1.36 1.07-2.23 0-.68-.29-1.27-.97-1.75-.49-.29-1.65-.68-3.4-1.07l-5.05-1.65c-.97-.49-1.75-1.07-2.23-1.84-.49-.78-.68-1.66-.68-2.63 0-.87.19-1.74.58-2.42.39-.78.97-1.36 1.65-1.85.49-.39 1.26-.78 2.14-.97.87-.29 1.84-.48 2.81-.48 1.56 0 2.92.29 4.08.67 1.17.49 2.04 1.07 2.62 1.85.49.78.88 1.75 1.17 3.01l-3.3.48c-.2-1.06-.58-1.84-1.26-2.42-.68-.49-1.75-.78-3.01-.78-1.56 0-2.63.19-3.31.68-.68.58-.97 1.17-.97 1.84 0 .39.2.78.39 1.17.29.29.68.58 1.26.87l3.01.88c2.33.58 3.98 1.07 4.86 1.55.97.39 1.75.97 2.23 1.75.49.68.78 1.65.78 2.82 0 1.06-.29 2.13-.97 3.1-.58.97-1.56 1.75-2.82 2.33-1.16.49-2.52.78-4.08.78-2.62 0-4.56-.58-5.82-1.65-1.36-1.07-2.24-2.62-2.62-4.66zm27.77-5.54c2.23-.29 3.88-.68 5.04-1.06v-.88c0-1.36-.29-2.33-.97-2.91-.77-.68-2.03-1.07-3.78-1.07h-.29c-1.36 0-2.43.29-3.11.78-.78.58-1.36 1.55-1.65 2.91l-3.3-.39c.29-1.45.77-2.52 1.45-3.4.68-.87 1.65-1.55 3.01-1.94 1.07-.39 2.24-.68 3.6-.68.29-.09.58-.09.77-.09 1.75 0 3.11.29 4.08.67 1.07.39 1.85.88 2.33 1.46.49.58.87 1.36 1.07 2.23.1.59.19 1.65.19 3.11v4.37l.2 5.92c.09.78.39 1.66.87 2.33h-3.5c-.38-.67-.58-1.45-.67-2.42-1.27 1.07-2.43 1.84-3.6 2.23l-1.74.49c-.59.09-1.27.19-1.95.19-2.13 0-3.78-.58-4.95-1.55-1.16-1.07-1.75-2.43-1.75-4.08 0-.97.3-1.85.68-2.62.49-.78.98-1.46 1.75-1.95.68-.48 1.46-.87 2.33-1.06.68-.2 1.65-.39 3.01-.49.29-.1.58-.1.88-.1zm0 9.13a6.06 6.06 0 0 0 2.33-.78c.97-.48 1.74-1.26 2.23-2.23.29-.77.48-1.94.48-3.4v-1.16c-1.16.48-2.81.87-5.04 1.16-.1 0-.3.1-.39.1-1.36.19-2.33.39-2.92.68-.58.19-.97.58-1.26 1.07-.39.48-.48.97-.48 1.55 0 .87.29 1.65.97 2.23.68.59 1.65.88 3.01.88.39 0 .68 0 1.07-.1zM1.06 232.14h0v-27.09H6.5l6.4 19.23 1.27 3.98c.39-.97.87-2.43 1.45-4.37l6.51-18.84h4.85v27.09h-3.49v-22.62l-7.87 22.62h-3.2l-7.86-23.01v23.01h-3.5zm52.24 0h0v-27.09h3.39v27.09H53.3zm-13.01-11.65h5.53c-.19-1.65-.58-2.91-1.26-3.78-1.07-1.27-2.43-1.85-4.08-1.85h-.19c-1.46 0-2.72.49-3.69 1.46-1.07 1.06-1.65 2.42-1.75 4.17h5.44zm0 9.42h.29c1.26 0 2.23-.39 3.1-.97.88-.68 1.56-1.65 2.14-3.11l3.4.39c-.58 2.04-1.55 3.59-3.01 4.76-1.46 1.07-3.4 1.65-5.63 1.65h-.29c-2.72-.1-4.96-.97-6.51-2.72-1.75-1.75-2.52-4.17-2.52-7.38 0-3.3.77-5.92 2.52-7.67 1.65-1.84 3.89-2.72 6.51-2.81h.09c2.63 0 4.76.97 6.41 2.71 1.75 1.75 2.53 4.28 2.53 7.58v.87H34.65c.1 2.14.78 3.79 1.85 4.95 1.07 1.07 2.33 1.65 3.79 1.75zm42.43 9.81h0l-.39-3.11c.77.19 1.36.29 1.94.29.68 0 1.26-.1 1.75-.39.48-.19.78-.58 1.07-1.06.29-.3.58-1.07 1.07-2.43 0-.2.09-.49.29-.78l-7.48-19.71h3.59l4.08 11.36c.58 1.46 1.07 3.01 1.46 4.56.38-1.55.77-3.01 1.36-4.46l4.17-11.46h3.3l-7.47 20-1.85 4.47c-.58 1.07-1.26 1.84-2.04 2.33-.77.58-1.65.78-2.72.78-.68 0-1.36-.1-2.13-.39zm-13.4-18.94c2.23-.29 3.88-.68 5.05-1.06v-.88c0-1.36-.29-2.33-.97-2.91-.88-.68-2.14-1.07-3.79-1.07h-.29c-1.46 0-2.43.29-3.21.78-.68.58-1.26 1.55-1.65 2.91l-3.2-.39c.29-1.45.78-2.52 1.46-3.4.68-.87 1.65-1.55 2.91-1.94 1.07-.39 2.33-.68 3.69-.68.19-.09.48-.09.78-.09 1.64 0 3 .29 4.07.67 1.07.39 1.85.88 2.33 1.46.49.58.88 1.36 1.07 2.23.1.59.1 1.65.1 3.11v4.37l.29 5.92c.1.78.39 1.66.78 2.33h-3.5c-.29-.67-.48-1.45-.58-2.42-1.26 1.07-2.43 1.84-3.59 2.23l-1.75.49c-.68.09-1.26.19-1.94.19-2.14 0-3.79-.58-4.96-1.55-1.16-1.07-1.74-2.43-1.74-4.08 0-.97.19-1.85.68-2.62.38-.78.97-1.46 1.65-1.95.77-.48 1.55-.87 2.42-1.06.68-.2 1.65-.39 3.01-.49.3-.1.59-.1.88-.1zm0 9.13c.78-.1 1.55-.39 2.33-.78.97-.48 1.65-1.26 2.13-2.23.39-.77.59-1.94.59-3.4v-1.16c-1.17.48-2.82.87-5.05 1.16-.2 0-.29.1-.39.1-1.36.19-2.33.39-2.91.68-.59.19-1.07.58-1.36 1.07-.29.48-.39.97-.39 1.55 0 .87.29 1.65.97 2.23.68.59 1.65.88 2.91.88.39 0 .78 0 1.17-.1zm93.89 2.23h0v-27.09h3.69l14.27 21.27v-21.27h3.4v27.09h-3.69l-14.17-21.26v21.26h-3.5zm-19.32 0h0v-19.61h3.4v19.61h-3.4zm0-23.2h0v-3.89h3.4v3.89h-3.4zm-21.07 23.2h0v-19.61h3.01v2.82c1.45-2.14 3.59-3.3 6.31-3.3 1.17 0 2.23.29 3.2.67.97.39 1.75.98 2.24 1.66.48.67.87 1.55 1.06 2.52.1.58.2 1.65.2 3.2v12.04h-3.4V220.2c0-1.36-.1-2.33-.39-3.01-.19-.68-.68-1.26-1.36-1.65s-1.36-.58-2.33-.58c-1.36 0-2.62.48-3.59 1.36-1.07.87-1.55 2.62-1.55 5.14v10.68h-3.4zm-13.5-11.36c2.23-.29 3.89-.68 5.05-1.06v-.88c0-1.36-.29-2.33-.97-2.91-.87-.68-2.14-1.07-3.79-1.07h-.29c-1.45 0-2.52.29-3.2.78-.68.58-1.26 1.55-1.65 2.91l-3.21-.39c.29-1.45.78-2.52 1.46-3.4.68-.87 1.65-1.55 2.91-1.94 1.07-.39 2.33-.68 3.69-.68.2-.09.49-.09.78-.09 1.65 0 3.01.29 4.08.67 1.07.39 1.84.88 2.33 1.46.48.58.77 1.36 1.06 2.23.1.59.1 1.65.1 3.11v4.37l.2 5.92c.19.78.48 1.66.87 2.33h-3.49c-.3-.67-.59-1.45-.68-2.42-1.17 1.07-2.34 1.84-3.5 2.23-.58.19-1.16.39-1.75.49-.68.09-1.26.19-1.94.19-2.14 0-3.79-.58-4.95-1.55-1.17-1.07-1.75-2.43-1.75-4.08 0-.97.19-1.85.68-2.62.39-.78.97-1.46 1.65-1.95.78-.48 1.55-.87 2.43-1.06.68-.2 1.65-.39 2.91-.49.39-.1.68-.1.97-.1zm0 9.13c.78-.1 1.56-.39 2.23-.78 1.07-.48 1.75-1.26 2.24-2.23.39-.77.58-1.94.58-3.4v-1.16c-1.16.48-2.91.87-5.05 1.16-.19 0-.29.1-.39.1-1.36.19-2.33.39-2.91.68-.58.19-1.07.58-1.36 1.07-.29.48-.48.97-.48 1.55 0 .87.38 1.65 1.06 2.23.68.59 1.65.88 2.92.88.39 0 .77 0 1.16-.1zm88.84-9.42h5.54c-.19-1.65-.58-2.91-1.26-3.78-1.07-1.27-2.43-1.85-4.18-1.85h-.1c-1.45 0-2.71.49-3.69 1.46-1.06 1.06-1.65 2.42-1.74 4.17h5.43zm0 9.42h.3c1.26 0 2.23-.39 3.1-.97.88-.68 1.56-1.65 2.04-3.11l3.5.39c-.59 2.04-1.56 3.59-3.01 4.76-1.46 1.07-3.4 1.65-5.63 1.65h-.3c-2.71-.1-4.95-.97-6.6-2.72s-2.52-4.17-2.52-7.38c0-3.3.87-5.92 2.62-7.67 1.65-1.84 3.88-2.72 6.5-2.81h.1c2.62 0 4.76.97 6.41 2.71 1.65 1.75 2.52 4.28 2.52 7.58v.87h-14.66c.1 2.14.68 3.79 1.85 4.95.97 1.07 2.33 1.65 3.78 1.75zm20.59-.48c1.55 0 2.81-.59 3.88-1.75 1.07-1.17 1.56-3.01 1.56-5.54 0-2.42-.59-4.27-1.65-5.43-.98-1.27-2.24-1.85-3.79-1.85-1.56 0-2.72.58-3.79 1.75-1.07 1.26-1.55 3.01-1.55 5.44 0 2.52.48 4.37 1.55 5.63.97 1.16 2.23 1.75 3.79 1.75zm0 7.96c1.36-.1 2.43-.39 3.2-.97.88-.59 1.36-1.46 1.75-2.53.1-.68.2-2.13.2-4.27-1.36 1.65-3.11 2.43-5.15 2.52h-.29c-2.72 0-4.76-.97-6.31-2.91-1.46-1.94-2.14-4.27-2.14-6.99 0-1.84.29-3.59.97-5.15.68-1.65 1.65-2.81 2.91-3.69 1.36-.87 2.82-1.35 4.57-1.35h.29c2.23.09 3.98 1.06 5.44 2.81v-2.33h3.1v16.99c0 3.01-.29 5.25-.97 6.51-.58 1.26-1.55 2.23-2.91 3.01-1.26.68-2.82 1.07-4.66 1.07h-.39c-2.33 0-4.17-.49-5.63-1.56s-2.14-2.62-2.14-4.75l3.3.48c.1.97.49 1.75 1.07 2.14.88.68 2.04.97 3.4.97h.39zm77-5.25h0v-27.09h3.59v13.5l13.4-13.5h4.85l-11.36 10.98 11.85 16.11h-4.66l-9.71-13.69-4.37 4.37v9.32h-3.59zm-20.49 0h0v-3.78h3.79v3.78c0 1.46-.2 2.53-.78 3.4-.49.88-1.26 1.56-2.33 1.94l-.87-1.35c.68-.3 1.16-.78 1.55-1.36.29-.59.48-1.46.48-2.63h-1.84zm-9.23 0h0v-19.61h3.31v19.61h-3.31zm0-23.2h0v-3.89h3.31v3.89h-3.31zm-12.71 23.2h0v-19.61h3v3.01c.78-1.46 1.46-2.33 2.14-2.82.59-.38 1.36-.67 2.14-.67 1.07 0 2.23.38 3.4 1.06l-1.17 3.11c-.78-.48-1.65-.68-2.43-.68-.68 0-1.35.2-1.94.68-.58.39-.97.97-1.26 1.75-.39 1.26-.58 2.52-.58 3.88v10.29h-3.3zm-13.02-11.65h5.44c-.1-1.65-.48-2.91-1.16-3.78-1.07-1.27-2.53-1.85-4.18-1.85h-.1a5.43 5.43 0 0 0-3.78 1.46c-.97 1.06-1.56 2.42-1.65 4.17h5.43zm0 9.42h.3c1.16 0 2.23-.39 3.1-.97.88-.68 1.56-1.65 2.04-3.11l3.4.39c-.48 2.04-1.46 3.59-3.01 4.76-1.46 1.07-3.3 1.65-5.53 1.65h-.3c-2.72-.1-4.95-.97-6.6-2.72s-2.52-4.17-2.52-7.38c0-3.3.87-5.92 2.62-7.67 1.65-1.84 3.78-2.72 6.5-2.81h.1c2.62 0 4.76.97 6.41 2.71 1.65 1.75 2.52 4.28 2.52 7.58 0 .19 0 .48-.09.87h-14.57c.1 2.14.68 3.79 1.85 4.95.97 1.07 2.23 1.65 3.78 1.75zm88.26-9.42h5.54c-.19-1.65-.58-2.91-1.26-3.78-1.07-1.27-2.43-1.85-4.18-1.85h-.1c-1.45 0-2.71.49-3.68 1.46-1.07 1.06-1.66 2.42-1.75 4.17h5.43zm0 9.42h.3c1.16 0 2.23-.39 3.1-.97.88-.68 1.56-1.65 2.04-3.11l3.5.39c-.59 2.04-1.56 3.59-3.01 4.76-1.56 1.07-3.4 1.65-5.63 1.65h-.3c-2.71-.1-4.95-.97-6.5-2.72-1.65-1.75-2.52-4.17-2.52-7.38 0-3.3.87-5.92 2.62-7.67 1.55-1.84 3.78-2.72 6.4-2.81h.1c2.62 0 4.76.97 6.41 2.71 1.65 1.75 2.53 4.28 2.53 7.58v.87h-14.57c0 2.14.58 3.79 1.75 4.95.97 1.07 2.23 1.65 3.78 1.75zm21.37-17.77c.19-.09.29-.09.38-.09 1.27 0 2.34.29 3.5.77 1.07.49 1.94 1.17 2.62 2.04.68.88 1.26 1.94 1.65 3.2.39 1.27.58 2.63.58 3.99 0 3.39-.87 6.02-2.52 7.76-1.65 1.85-3.69 2.82-6.02 2.82h-.19c-2.14-.1-3.89-1.07-5.25-2.91v2.42h-3.01v-27.09h3.3v9.71c1.27-1.65 3.01-2.62 4.96-2.62zm0 17.77c1.45-.1 2.72-.68 3.69-1.94 1.06-1.26 1.65-3.11 1.65-5.63 0-2.53-.49-4.47-1.56-5.63-.97-1.27-2.23-1.85-3.69-1.85h-.09c-1.36 0-2.63.58-3.69 1.85-1.07 1.26-1.56 3.1-1.56 5.53 0 2.33.29 3.98.97 5.05 1.07 1.75 2.43 2.62 4.28 2.62zm33.88 2.23h0v-19.61h2.91v2.82c1.46-2.14 3.6-3.3 6.32-3.3 1.16 0 2.23.29 3.2.67 1.07.39 1.75.98 2.24 1.66.48.67.87 1.55 1.06 2.52.1.58.2 1.65.2 3.2v12.04h-3.3V220.2c0-1.36-.2-2.33-.39-3.01a3.43 3.43 0 0 0-1.46-1.65c-.58-.39-1.36-.58-2.33-.58-1.36 0-2.62.48-3.59 1.36-1.07.87-1.56 2.62-1.56 5.14v10.68h-3.3zm-13.59-11.36c2.23-.29 3.88-.68 5.05-1.06v-.88c0-1.36-.29-2.33-.97-2.91-.88-.68-2.14-1.07-3.79-1.07h-.29c-1.46 0-2.43.29-3.21.78-.68.58-1.26 1.55-1.65 2.91l-3.2-.39c.29-1.45.78-2.52 1.46-3.4.68-.87 1.65-1.55 2.91-1.94 1.07-.39 2.33-.68 3.69-.68.19-.09.48-.09.78-.09 1.65 0 3.01.29 4.07.67 1.07.39 1.85.88 2.33 1.46.49.58.88 1.36 1.07 2.23.1.59.1 1.65.1 3.11v4.37l.29 5.92c.1.78.39 1.66.78 2.33h-3.5c-.29-.67-.48-1.45-.58-2.42-1.26 1.07-2.43 1.84-3.59 2.23l-1.75.49c-.68.09-1.26.19-1.94.19-2.14 0-3.79-.58-4.95-1.55-1.17-1.07-1.75-2.43-1.75-4.08 0-.97.19-1.85.68-2.62.39-.78.97-1.46 1.65-1.95.78-.48 1.55-.87 2.42-1.06.68-.2 1.66-.39 3.02-.49.29-.1.58-.1.87-.1zm0 9.13c.78-.1 1.55-.39 2.23-.78 1.07-.48 1.75-1.26 2.24-2.23.38-.77.58-1.94.58-3.4v-1.16c-1.17.48-2.91.87-5.05 1.16-.2 0-.29.1-.39.1-1.36.19-2.33.39-2.91.68-.59.19-1.07.58-1.36 1.07-.29.48-.39.97-.39 1.55 0 .87.29 1.65.97 2.23.68.59 1.65.88 2.91.88.39 0 .78 0 1.17-.1zm42.14-.48c1.55 0 2.81-.59 3.79-1.75 1.06-1.17 1.55-3.01 1.55-5.54 0-2.42-.49-4.27-1.55-5.43-1.07-1.27-2.34-1.85-3.79-1.85h-.1c-1.45 0-2.72.58-3.78 1.75-.98 1.26-1.56 3.01-1.56 5.44 0 2.52.58 4.37 1.56 5.63 1.06 1.16 2.33 1.75 3.88 1.75zm0 7.96c1.36-.1 2.43-.39 3.2-.97.78-.59 1.36-1.46 1.65-2.53.2-.68.29-2.13.29-4.27-1.45 1.65-3.1 2.43-5.14 2.52h-.29c-2.72 0-4.86-.97-6.31-2.91-1.46-1.94-2.24-4.27-2.24-6.99a12.89 12.89 0 0 1 1.07-5.15c.68-1.65 1.65-2.81 2.91-3.69 1.27-.87 2.82-1.35 4.57-1.35h.29c2.14.09 3.98 1.06 5.44 2.81v-2.33h3.1v16.99c0 3.01-.39 5.25-.97 6.51-.68 1.26-1.65 2.23-3.01 3.01-1.26.68-2.72 1.07-4.56 1.07h-.39c-2.33 0-4.27-.49-5.63-1.56-1.46-1.07-2.14-2.62-2.14-4.75l3.21.48c.19.97.58 1.75 1.16 2.14.88.68 1.94.97 3.4.97h.39zm21.07-7.96a4.7 4.7 0 0 0 3.78-1.75c1.07-1.17 1.56-3.01 1.56-5.54 0-2.42-.49-4.27-1.56-5.43-1.06-1.27-2.32-1.85-3.78-1.85h-.1c-1.46 0-2.72.58-3.78 1.75-.98 1.26-1.56 3.01-1.56 5.44 0 2.52.58 4.37 1.56 5.63 1.06 1.16 2.32 1.75 3.88 1.75zm0 7.96c1.36-.1 2.43-.39 3.2-.97.78-.59 1.36-1.46 1.65-2.53.2-.68.29-2.13.29-4.27-1.45 1.65-3.1 2.43-5.14 2.52h-.29c-2.72 0-4.86-.97-6.31-2.91-1.46-1.94-2.24-4.27-2.24-6.99a12.89 12.89 0 0 1 1.07-5.15c.68-1.65 1.65-2.81 2.91-3.69 1.27-.87 2.82-1.35 4.57-1.35h.29c2.14.09 3.98 1.06 5.44 2.81v-2.33h3v16.99c0 3.01-.28 5.25-.87 6.51-.68 1.26-1.65 2.23-3.01 3.01-1.26.68-2.81 1.07-4.56 1.07h-.39c-2.33 0-4.27-.49-5.63-1.56-1.46-1.07-2.23-2.62-2.14-4.75l3.21.48c.19.97.58 1.75 1.16 2.14.78.68 1.94.97 3.4.97h.39zm20.97-16.61c2.24-.29 3.98-.68 5.05-1.06v-.88c0-1.36-.29-2.33-.87-2.91-.88-.68-2.14-1.07-3.79-1.07h-.39c-1.36 0-2.43.29-3.11.78-.77.58-1.26 1.55-1.65 2.91l-3.3-.39c.39-1.45.88-2.52 1.46-3.4.68-.87 1.75-1.55 3.01-1.94 1.07-.39 2.23-.68 3.59-.68.29-.09.58-.09.87-.09 1.66 0 3.02.29 4.08.67 1.07.39 1.75.88 2.33 1.46.49.58.78 1.36.97 2.23.1.59.2 1.65.2 3.11v4.37l.19 5.92c.2.78.39 1.66.88 2.33h-3.5c-.39-.67-.58-1.45-.68-2.42-1.26 1.07-2.43 1.84-3.59 2.23a9.94 9.94 0 0 1-1.75.49c-.58.09-1.26.19-1.84.19-2.24 0-3.89-.58-5.05-1.55-1.07-1.07-1.65-2.43-1.65-4.08 0-.97.19-1.85.58-2.62.49-.78 1.07-1.46 1.75-1.95a6.87 6.87 0 0 1 2.42-1.06c.59-.2 1.65-.39 2.92-.49.29-.1.58-.1.87-.1zm0 9.13a6.06 6.06 0 0 0 2.33-.78c.97-.48 1.75-1.26 2.23-2.23.3-.77.49-1.94.49-3.4v-1.16c-1.16.48-2.81.87-5.05 1.16-.1 0-.19.1-.39.1-1.36.19-2.33.39-2.91.68a2.61 2.61 0 0 0-1.26 1.07c-.29.48-.49.97-.49 1.55 0 .87.39 1.65 1.07 2.23.58.59 1.65.88 2.91.88.39 0 .78 0 1.07-.1zm34.66 2.23h0v-19.61h3.02v2.82c1.45-2.14 3.49-3.3 6.21-3.3 1.16 0 2.33.29 3.3.67.97.39 1.75.98 2.23 1.66.49.67.78 1.55.97 2.52.2.58.2 1.65.2 3.2v12.04h-3.3V220.2c0-1.36-.1-2.33-.39-3.01s-.68-1.26-1.36-1.65-1.46-.58-2.33-.58c-1.46 0-2.62.48-3.69 1.36-1.07.87-1.55 2.62-1.55 5.14v10.68h-3.31zm-13.59-11.36c2.23-.29 3.98-.68 5.05-1.06v-.88c0-1.36-.29-2.33-.87-2.91-.88-.68-2.14-1.07-3.79-1.07h-.39c-1.36 0-2.43.29-3.11.78-.77.58-1.26 1.55-1.65 2.91l-3.3-.39c.29-1.45.78-2.52 1.46-3.4.68-.87 1.75-1.55 3.01-1.94 1.07-.39 2.23-.68 3.59-.68.29-.09.58-.09.88-.09 1.65 0 3 .29 4.07.67.97.39 1.75.88 2.24 1.46.58.58.87 1.36 1.06 2.23.1.59.2 1.65.2 3.11v4.37l.19 5.92c.1.78.39 1.66.88 2.33h-3.5c-.39-.67-.58-1.45-.68-2.42-1.26 1.07-2.43 1.84-3.59 2.23l-1.75.49c-.58.09-1.26.19-1.84.19-2.24 0-3.89-.58-5.05-1.55-1.17-1.07-1.75-2.43-1.75-4.08 0-.97.29-1.85.68-2.62.48-.78 1.07-1.46 1.75-1.95.68-.48 1.45-.87 2.43-1.06.58-.2 1.55-.39 2.91-.49.29-.1.58-.1.87-.1zm0 9.13c.88-.1 1.65-.39 2.33-.78.97-.48 1.75-1.26 2.24-2.23.29-.77.48-1.94.48-3.4v-1.16c-1.17.48-2.82.87-5.05 1.16-.09 0-.19.1-.39.1-1.36.19-2.33.39-2.91.68-.58.19-.97.58-1.26 1.07-.29.48-.49.97-.49 1.55 0 .87.39 1.65.97 2.23.68.59 1.65.88 3.01.88.39 0 .68 0 1.07-.1zm55.06-24.86h.58c2.04 0 3.69.3 4.95.88 1.26.48 2.23 1.36 2.91 2.52.78 1.07 1.07 2.33 1.07 3.6 0 1.06-.29 2.23-.87 3.2-.68 1.07-1.66 1.84-2.92 2.52 1.65.49 2.92 1.27 3.79 2.43a6.61 6.61 0 0 1 1.36 4.08 8.76 8.76 0 0 1-.78 3.59c-.58 1.07-1.26 1.94-2.04 2.53-.77.58-1.74.97-2.91 1.36-1.26.29-2.72.38-4.47.38h-10.29v-27.09h9.62zm0 11.36c1.45 0 2.62-.09 3.3-.29.87-.29 1.55-.68 2.04-1.36.48-.58.67-1.36.67-2.33 0-.87-.19-1.74-.67-2.42-.39-.68-1.07-1.07-1.85-1.36-.68-.2-1.85-.39-3.49-.39h-6.03v8.15h6.03zm0 12.53h.67l2.53-.1c.78-.19 1.46-.39 2.04-.77.58-.3.97-.78 1.36-1.46.38-.68.58-1.46.58-2.33 0-.97-.29-1.85-.78-2.62-.58-.78-1.26-1.26-2.23-1.56-.87-.29-2.23-.48-3.88-.48h-6.32v9.32h6.03zm36.41 3.2h0v-19.61h3.01v2.82c1.45-2.14 3.49-3.3 6.21-3.3 1.26 0 2.33.29 3.3.67.97.39 1.75.98 2.23 1.66.49.67.88 1.55 1.07 2.52.1.58.2 1.65.2 3.2v12.04h-3.4V220.2c0-1.36-.1-2.33-.39-3.01-.19-.68-.68-1.26-1.36-1.65s-1.46-.58-2.33-.58c-1.36 0-2.62.48-3.69 1.36-.97.87-1.55 2.62-1.55 5.14v10.68h-3.3zm-13.6-11.36c2.24-.29 3.98-.68 5.05-1.06.1-.49.1-.78.1-.88 0-1.36-.39-2.33-.97-2.91-.88-.68-2.14-1.07-3.79-1.07h-.39c-1.36 0-2.42.29-3.1.78-.78.58-1.27 1.55-1.66 2.91l-3.2-.39c.29-1.45.78-2.52 1.46-3.4.68-.87 1.65-1.55 2.91-1.94 1.07-.39 2.23-.68 3.59-.68.29-.09.58-.09.88-.09 1.65 0 3.01.29 4.07.67 1.07.39 1.85.88 2.33 1.46.49.58.78 1.36.98 2.23.09.59.19 1.65.19 3.11v4.37l.19 5.92c.2.78.49 1.66.88 2.33h-3.5c-.29-.67-.58-1.45-.68-2.42-1.16 1.07-2.42 1.84-3.49 2.23-.59.19-1.17.39-1.85.49-.58.09-1.26.19-1.84.19-2.14 0-3.79-.58-4.95-1.55-1.17-1.07-1.75-2.43-1.75-4.08 0-.97.19-1.85.58-2.62.49-.78 1.07-1.46 1.75-1.95a6.84 6.84 0 0 1 2.43-1.06c.58-.2 1.65-.39 2.91-.49.29-.1.58-.1.87-.1zm0 9.13c.88-.1 1.65-.39 2.33-.78.97-.48 1.75-1.26 2.24-2.23.38-.77.48-1.94.48-3.4v-1.16c-1.07.48-2.81.87-5.05 1.16-.09 0-.19.1-.39.1-1.36.19-2.33.39-2.81.68-.58.19-1.07.58-1.36 1.07-.29.48-.49.97-.49 1.55 0 .87.39 1.65 1.07 2.23.58.59 1.65.88 2.92.88.38 0 .77 0 1.06-.1zm42.24-.48c1.46 0 2.81-.59 3.79-1.75 1.06-1.17 1.55-3.01 1.55-5.54 0-2.42-.49-4.27-1.55-5.43-1.07-1.27-2.33-1.85-3.79-1.85h-.1c-1.45 0-2.72.58-3.78 1.75-1.07 1.26-1.56 3.01-1.56 5.44 0 2.52.49 4.37 1.56 5.63 1.06 1.16 2.33 1.75 3.88 1.75zm0 7.96c1.36-.1 2.33-.39 3.11-.97.87-.59 1.45-1.46 1.74-2.53.2-.68.2-2.13.2-4.27-1.36 1.65-3.01 2.43-5.05 2.52h-.39c-2.72 0-4.76-.97-6.21-2.91-1.46-1.94-2.24-4.27-2.24-6.99 0-1.84.29-3.59.97-5.15.68-1.65 1.75-2.81 3.01-3.69 1.27-.87 2.82-1.35 4.57-1.35h.29c2.13.09 3.98 1.06 5.44 2.81v-2.33h3.01v16.99c0 3.01-.29 5.25-.88 6.51-.68 1.26-1.65 2.23-3.01 3.01-1.26.68-2.81 1.07-4.56 1.07h-.39c-2.33 0-4.27-.49-5.73-1.56-1.45-1.07-2.13-2.62-2.04-4.75l3.21.48c.19.97.48 1.75 1.16 2.14.78.68 1.94.97 3.4.97h.39z" fill="#007697"/></svg>